<?xml version="1.0" encoding="utf-8"?>
<svg version="1.1" xmlns="http://www.w3.org/2000/svg" viewBox="0 0 40 39" xml:space="preserve">
<style type="text/css">.st0{fill:#007A33;}</style>
<g transform="translate(-21.401 -16)">
	<g id="Eagle">
		<g>
			<path class="st0" d="M54.4,48c-0.3-0.1-0.8,0.1-0.8,0.1c-0.1-0.7-0.9-1.7-0.9-1.7S54.4,47.9,54.4,48c0-0.1,0.6-1.1-0.5-2.1
				c-1.5-1.5-4.5-4.1-4.5-4.1c0.2,0.7,1.4,2.8,0.8,6.8l1.5,0.3l0.2,0.3c0,0,1.7,0.2,2,0.5c0,0,0.6,0.4-0.1,1c0,0,1-0.2,1.5-0.8
				c0,0,0.5-0.4-0.1-1L54.4,48"/>
		</g>
		<g>
			<path class="st0" d="M46.3,38.6L24.4,18.3c-1-1-0.6-2.3-0.6-2.3L22,19.9c-0.5,1.3,0.2,2,0.8,2.4c0.5,0.4,17.4,14.1,17.4,14.1V37
				L23.4,24.1c-0.8-0.6-0.7-1.7-0.7-1.7l-1.2,2.5c-0.6,1.4,0.8,2.3,1.5,2.7c0.6,0.5,17.3,12.2,17.3,12.2l0.1,0.7
				c0,0-16.2-10.8-16.8-11.2c-0.7-0.4-0.7-1.5-0.7-1.5l-1.2,2.5c-0.5,1,0.9,1.7,1.5,2.2c0.4,0.3,9.5,5.7,17,10.1h-9.7
				c-1.4,0-1.9-0.4-1.9-0.4l1.3,1.2c0.2,0.2,0.8,0.9,1.7,0.9c0.6,0,3.6,0,3.6,0l0.7,0.3l-3.2,0.2c-0.6,0-0.8,0.1-1.6-0.3l1.4,1.3
				c0.4,0.3,0.7,0.6,1.4,0.6c0.7-0.1,4.6-0.7,4.6-0.7l0.6,0.3L35,46.9c-0.9,0.2-1.6-0.3-1.6-0.3s0.8,0.8,1.3,1.3
				c0.6,0.5,1,0.8,2.7,0.3c0.7-0.2,4-1.3,4-1.3l2.2,0.9c2.2,3,4.9,4.6,4.9,4.6c-0.5,0.7-0.1,1.4-0.1,1.4c0.4-0.9,1.5-1.4,2.2-1.3
				c0.6,0.1,0.5,0.9,0.5,0.8c0.4-0.5,0.8-1.1,0.3-1.7c-0.5-0.6-1.7-0.1-1.7-0.1l-1.3-2.2l1.7-1C51,42.6,46.3,38.6,46.3,38.6"/>
		</g>
		<path class="st0" d="M45.1,30.2c-0.3-0.3-10.4-11.7-10.4-11.7c-0.9-1-0.6-1.7-0.6-1.8l-1.2,2.7c-0.3,0.7,0.2,1.2,0.6,1.6
			c0.4,0.4,11,11.5,11,11.5l-0.1,0.6l-10-10c-0.8-0.8-0.6-1.5-0.6-1.5l-1,2.4c-0.2,0.8,0.6,1.3,1,1.7c0.6,0.6,11.8,11,12.7,11.9
			c2,1.8,2.9,4.1,2.9,4.1C50.6,36,46.2,31.5,45.1,30.2"/>
	</g>
</g>
</svg>
